<mxfile host="app.diagrams.net" agent="Mozilla/5.0 (Macintosh; Intel Mac OS X 10_15_7) AppleWebKit/537.36 (KHTML, like Gecko) Chrome/131.0.0.0 Safari/537.36" version="26.0.2">
  <diagram name="第 1 页" id="Jngb861KnufWl69_fnjL">
    <mxGraphModel dx="2074" dy="1045" grid="1" gridSize="10" guides="1" tooltips="1" connect="1" arrows="1" fold="1" page="1" pageScale="1" pageWidth="827" pageHeight="1169" math="0" shadow="0">
      <root>
        <mxCell id="0" />
        <mxCell id="1" parent="0" />
        <mxCell id="dyopTxuXkjIeMEn5bf7l-1" value="" style="endArrow=none;html=1;rounded=0;sketch=1;hachureGap=4;jiggle=2;curveFitting=1;fontFamily=Architects Daughter;fontSource=https%3A%2F%2Ffonts.googleapis.com%2Fcss%3Ffamily%3DArchitects%2BDaughter;" edge="1" parent="1">
          <mxGeometry width="50" height="50" relative="1" as="geometry">
            <mxPoint x="80" y="120" as="sourcePoint" />
            <mxPoint x="760" y="120" as="targetPoint" />
          </mxGeometry>
        </mxCell>
        <mxCell id="dyopTxuXkjIeMEn5bf7l-2" value="" style="endArrow=none;html=1;rounded=0;sketch=1;hachureGap=4;jiggle=2;curveFitting=1;fontFamily=Architects Daughter;fontSource=https%3A%2F%2Ffonts.googleapis.com%2Fcss%3Ffamily%3DArchitects%2BDaughter;" edge="1" parent="1" source="dyopTxuXkjIeMEn5bf7l-193">
          <mxGeometry width="50" height="50" relative="1" as="geometry">
            <mxPoint x="80" y="1040" as="sourcePoint" />
            <mxPoint x="760" y="1040" as="targetPoint" />
          </mxGeometry>
        </mxCell>
        <mxCell id="dyopTxuXkjIeMEn5bf7l-3" value="&lt;font style=&quot;font-size: 35px;&quot; face=&quot;Helvetica&quot;&gt;&lt;b&gt;8大缓存淘汰策略&lt;/b&gt;&lt;/font&gt;" style="text;html=1;align=center;verticalAlign=middle;resizable=0;points=[];autosize=1;strokeColor=none;fillColor=none;fontFamily=Architects Daughter;fontSource=https%3A%2F%2Ffonts.googleapis.com%2Fcss%3Ffamily%3DArchitects%2BDaughter;" vertex="1" parent="1">
          <mxGeometry x="269" y="25" width="290" height="60" as="geometry" />
        </mxCell>
        <mxCell id="dyopTxuXkjIeMEn5bf7l-4" value="" style="rounded=1;whiteSpace=wrap;html=1;hachureGap=4;fontFamily=Architects Daughter;fontSource=https%3A%2F%2Ffonts.googleapis.com%2Fcss%3Ffamily%3DArchitects%2BDaughter;dashed=1;fillColor=#dae8fc;strokeColor=#6c8ebf;" vertex="1" parent="1">
          <mxGeometry x="100" y="130" width="210" height="300" as="geometry" />
        </mxCell>
        <mxCell id="dyopTxuXkjIeMEn5bf7l-12" value="&lt;b&gt;&lt;font style=&quot;font-size: 17px;&quot; face=&quot;Helvetica&quot;&gt;LRU&lt;br&gt;（最近最少使用）&lt;/font&gt;&lt;/b&gt;" style="rounded=1;whiteSpace=wrap;html=1;hachureGap=4;fontFamily=Architects Daughter;fontSource=https%3A%2F%2Ffonts.googleapis.com%2Fcss%3Ffamily%3DArchitects%2BDaughter;dashed=1;fillColor=#b1ddf0;strokeColor=#10739e;" vertex="1" parent="1">
          <mxGeometry x="120" y="140" width="170" height="50" as="geometry" />
        </mxCell>
        <mxCell id="dyopTxuXkjIeMEn5bf7l-13" value="" style="html=1;verticalLabelPosition=bottom;align=center;labelBackgroundColor=#ffffff;verticalAlign=top;strokeWidth=2;strokeColor=#0080F0;shadow=0;dashed=0;shape=mxgraph.ios7.icons.clock;hachureGap=4;fontFamily=Architects Daughter;fontSource=https%3A%2F%2Ffonts.googleapis.com%2Fcss%3Ffamily%3DArchitects%2BDaughter;" vertex="1" parent="1">
          <mxGeometry x="260" y="130" width="30" height="30" as="geometry" />
        </mxCell>
        <mxCell id="dyopTxuXkjIeMEn5bf7l-15" value="" style="rounded=1;whiteSpace=wrap;html=1;hachureGap=4;fontFamily=Architects Daughter;fontSource=https%3A%2F%2Ffonts.googleapis.com%2Fcss%3Ffamily%3DArchitects%2BDaughter;dashed=1;fillColor=#dae8fc;strokeColor=#6c8ebf;" vertex="1" parent="1">
          <mxGeometry x="110" y="200" width="110" height="220" as="geometry" />
        </mxCell>
        <mxCell id="dyopTxuXkjIeMEn5bf7l-16" value="" style="ellipse;whiteSpace=wrap;html=1;aspect=fixed;hachureGap=4;fontFamily=Architects Daughter;fontSource=https%3A%2F%2Ffonts.googleapis.com%2Fcss%3Ffamily%3DArchitects%2BDaughter;fillColor=#f0a30a;strokeColor=#BD7000;fontColor=#000000;" vertex="1" parent="1">
          <mxGeometry x="120" y="240" width="20" height="20" as="geometry" />
        </mxCell>
        <mxCell id="dyopTxuXkjIeMEn5bf7l-17" value="" style="ellipse;whiteSpace=wrap;html=1;aspect=fixed;hachureGap=4;fontFamily=Architects Daughter;fontSource=https%3A%2F%2Ffonts.googleapis.com%2Fcss%3Ffamily%3DArchitects%2BDaughter;fillColor=#FFFFCC;" vertex="1" parent="1">
          <mxGeometry x="120" y="270" width="20" height="20" as="geometry" />
        </mxCell>
        <mxCell id="dyopTxuXkjIeMEn5bf7l-18" value="" style="ellipse;whiteSpace=wrap;html=1;aspect=fixed;hachureGap=4;fontFamily=Architects Daughter;fontSource=https%3A%2F%2Ffonts.googleapis.com%2Fcss%3Ffamily%3DArchitects%2BDaughter;fillColor=#FFFFCC;" vertex="1" parent="1">
          <mxGeometry x="120" y="300" width="20" height="20" as="geometry" />
        </mxCell>
        <mxCell id="dyopTxuXkjIeMEn5bf7l-19" value="" style="ellipse;whiteSpace=wrap;html=1;aspect=fixed;hachureGap=4;fontFamily=Architects Daughter;fontSource=https%3A%2F%2Ffonts.googleapis.com%2Fcss%3Ffamily%3DArchitects%2BDaughter;fillColor=#FFFFCC;" vertex="1" parent="1">
          <mxGeometry x="120" y="330" width="20" height="20" as="geometry" />
        </mxCell>
        <mxCell id="dyopTxuXkjIeMEn5bf7l-20" value="" style="ellipse;whiteSpace=wrap;html=1;aspect=fixed;hachureGap=4;fontFamily=Architects Daughter;fontSource=https%3A%2F%2Ffonts.googleapis.com%2Fcss%3Ffamily%3DArchitects%2BDaughter;fillColor=#FFFFCC;" vertex="1" parent="1">
          <mxGeometry x="120" y="210" width="20" height="20" as="geometry" />
        </mxCell>
        <mxCell id="dyopTxuXkjIeMEn5bf7l-21" value="&lt;font face=&quot;Helvetica&quot;&gt;5分钟&lt;/font&gt;" style="text;html=1;align=center;verticalAlign=middle;resizable=0;points=[];autosize=1;strokeColor=none;fillColor=none;fontFamily=Architects Daughter;fontSource=https%3A%2F%2Ffonts.googleapis.com%2Fcss%3Ffamily%3DArchitects%2BDaughter;" vertex="1" parent="1">
          <mxGeometry x="140" y="205" width="50" height="30" as="geometry" />
        </mxCell>
        <mxCell id="dyopTxuXkjIeMEn5bf7l-22" value="&lt;font face=&quot;Helvetica&quot;&gt;14小时&lt;/font&gt;" style="text;html=1;align=center;verticalAlign=middle;resizable=0;points=[];autosize=1;strokeColor=none;fillColor=none;fontFamily=Architects Daughter;fontSource=https%3A%2F%2Ffonts.googleapis.com%2Fcss%3Ffamily%3DArchitects%2BDaughter;" vertex="1" parent="1">
          <mxGeometry x="135" y="235" width="60" height="30" as="geometry" />
        </mxCell>
        <mxCell id="dyopTxuXkjIeMEn5bf7l-23" value="&lt;font face=&quot;Helvetica&quot;&gt;2小时&lt;/font&gt;" style="text;html=1;align=center;verticalAlign=middle;resizable=0;points=[];autosize=1;strokeColor=none;fillColor=none;fontFamily=Architects Daughter;fontSource=https%3A%2F%2Ffonts.googleapis.com%2Fcss%3Ffamily%3DArchitects%2BDaughter;" vertex="1" parent="1">
          <mxGeometry x="140" y="265" width="50" height="30" as="geometry" />
        </mxCell>
        <mxCell id="dyopTxuXkjIeMEn5bf7l-24" value="&lt;font face=&quot;Helvetica&quot;&gt;6分钟&lt;/font&gt;" style="text;html=1;align=center;verticalAlign=middle;resizable=0;points=[];autosize=1;strokeColor=none;fillColor=none;fontFamily=Architects Daughter;fontSource=https%3A%2F%2Ffonts.googleapis.com%2Fcss%3Ffamily%3DArchitects%2BDaughter;" vertex="1" parent="1">
          <mxGeometry x="140" y="295" width="50" height="30" as="geometry" />
        </mxCell>
        <mxCell id="dyopTxuXkjIeMEn5bf7l-25" value="&lt;font face=&quot;Helvetica&quot;&gt;5秒&lt;/font&gt;" style="text;html=1;align=center;verticalAlign=middle;resizable=0;points=[];autosize=1;strokeColor=none;fillColor=none;fontFamily=Architects Daughter;fontSource=https%3A%2F%2Ffonts.googleapis.com%2Fcss%3Ffamily%3DArchitects%2BDaughter;" vertex="1" parent="1">
          <mxGeometry x="145" y="325" width="40" height="30" as="geometry" />
        </mxCell>
        <mxCell id="dyopTxuXkjIeMEn5bf7l-26" value="" style="endArrow=classic;html=1;rounded=0;hachureGap=4;fontFamily=Architects Daughter;fontSource=https%3A%2F%2Ffonts.googleapis.com%2Fcss%3Ffamily%3DArchitects%2BDaughter;exitX=0.55;exitY=0.967;exitDx=0;exitDy=0;exitPerimeter=0;entryX=0.5;entryY=0;entryDx=0;entryDy=0;flowAnimation=1;" edge="1" parent="1" source="dyopTxuXkjIeMEn5bf7l-25" target="dyopTxuXkjIeMEn5bf7l-27">
          <mxGeometry width="50" height="50" relative="1" as="geometry">
            <mxPoint x="150" y="410" as="sourcePoint" />
            <mxPoint x="200" y="360" as="targetPoint" />
          </mxGeometry>
        </mxCell>
        <mxCell id="dyopTxuXkjIeMEn5bf7l-27" value="自上次使用以来&lt;br&gt;已过的时间" style="text;html=1;align=center;verticalAlign=middle;whiteSpace=wrap;rounded=0;fontFamily=Architects Daughter;fontSource=https%3A%2F%2Ffonts.googleapis.com%2Fcss%3Ffamily%3DArchitects%2BDaughter;" vertex="1" parent="1">
          <mxGeometry x="120" y="380" width="90" height="30" as="geometry" />
        </mxCell>
        <mxCell id="dyopTxuXkjIeMEn5bf7l-32" value="" style="shape=image;html=1;verticalAlign=top;verticalLabelPosition=bottom;labelBackgroundColor=#ffffff;imageAspect=0;aspect=fixed;image=https://cdn4.iconfinder.com/data/icons/ios-web-user-interface-multi-circle-flat-vol-5/512/Delete_dustbin_empty_recycle_recycling_remove_trash-128.png;sketch=1;hachureGap=4;jiggle=2;curveFitting=1;fontFamily=Architects Daughter;fontSource=https%3A%2F%2Ffonts.googleapis.com%2Fcss%3Ffamily%3DArchitects%2BDaughter;" vertex="1" parent="1">
          <mxGeometry x="251" y="230" width="48" height="48" as="geometry" />
        </mxCell>
        <mxCell id="dyopTxuXkjIeMEn5bf7l-33" value="最先被删除" style="text;html=1;align=center;verticalAlign=middle;whiteSpace=wrap;rounded=0;fontFamily=Architects Daughter;fontSource=https%3A%2F%2Ffonts.googleapis.com%2Fcss%3Ffamily%3DArchitects%2BDaughter;" vertex="1" parent="1">
          <mxGeometry x="240" y="278" width="70" height="30" as="geometry" />
        </mxCell>
        <mxCell id="dyopTxuXkjIeMEn5bf7l-34" value="" style="shape=flexArrow;endArrow=classic;html=1;rounded=0;hachureGap=4;fontFamily=Architects Daughter;fontSource=https%3A%2F%2Ffonts.googleapis.com%2Fcss%3Ffamily%3DArchitects%2BDaughter;" edge="1" parent="1">
          <mxGeometry width="50" height="50" relative="1" as="geometry">
            <mxPoint x="195" y="249.5" as="sourcePoint" />
            <mxPoint x="245" y="249.5" as="targetPoint" />
          </mxGeometry>
        </mxCell>
        <mxCell id="dyopTxuXkjIeMEn5bf7l-35" value="" style="rounded=1;whiteSpace=wrap;html=1;hachureGap=4;fontFamily=Architects Daughter;fontSource=https%3A%2F%2Ffonts.googleapis.com%2Fcss%3Ffamily%3DArchitects%2BDaughter;dashed=1;fillColor=#e1d5e7;strokeColor=#9673a6;" vertex="1" parent="1">
          <mxGeometry x="320" y="130" width="210" height="300" as="geometry" />
        </mxCell>
        <mxCell id="dyopTxuXkjIeMEn5bf7l-36" value="&lt;b&gt;&lt;font style=&quot;font-size: 17px;&quot; face=&quot;Helvetica&quot;&gt;MRU&lt;br&gt;（最近最常使用）&lt;/font&gt;&lt;/b&gt;" style="rounded=1;whiteSpace=wrap;html=1;hachureGap=4;fontFamily=Architects Daughter;fontSource=https%3A%2F%2Ffonts.googleapis.com%2Fcss%3Ffamily%3DArchitects%2BDaughter;dashed=1;fillColor=#d0cee2;strokeColor=#56517e;" vertex="1" parent="1">
          <mxGeometry x="340" y="140" width="170" height="50" as="geometry" />
        </mxCell>
        <mxCell id="dyopTxuXkjIeMEn5bf7l-37" value="" style="html=1;verticalLabelPosition=bottom;align=center;labelBackgroundColor=#ffffff;verticalAlign=top;strokeWidth=2;strokeColor=#0080F0;shadow=0;dashed=0;shape=mxgraph.ios7.icons.clock;hachureGap=4;fontFamily=Architects Daughter;fontSource=https%3A%2F%2Ffonts.googleapis.com%2Fcss%3Ffamily%3DArchitects%2BDaughter;" vertex="1" parent="1">
          <mxGeometry x="480" y="130" width="30" height="30" as="geometry" />
        </mxCell>
        <mxCell id="dyopTxuXkjIeMEn5bf7l-38" value="" style="rounded=1;whiteSpace=wrap;html=1;hachureGap=4;fontFamily=Architects Daughter;fontSource=https%3A%2F%2Ffonts.googleapis.com%2Fcss%3Ffamily%3DArchitects%2BDaughter;dashed=1;fillColor=#e1d5e7;strokeColor=#9673a6;" vertex="1" parent="1">
          <mxGeometry x="330" y="200" width="110" height="220" as="geometry" />
        </mxCell>
        <mxCell id="dyopTxuXkjIeMEn5bf7l-39" value="" style="ellipse;whiteSpace=wrap;html=1;aspect=fixed;hachureGap=4;fontFamily=Architects Daughter;fontSource=https%3A%2F%2Ffonts.googleapis.com%2Fcss%3Ffamily%3DArchitects%2BDaughter;fillColor=#f0a30a;strokeColor=#BD7000;fontColor=#000000;" vertex="1" parent="1">
          <mxGeometry x="340" y="330" width="20" height="20" as="geometry" />
        </mxCell>
        <mxCell id="dyopTxuXkjIeMEn5bf7l-40" value="" style="ellipse;whiteSpace=wrap;html=1;aspect=fixed;hachureGap=4;fontFamily=Architects Daughter;fontSource=https%3A%2F%2Ffonts.googleapis.com%2Fcss%3Ffamily%3DArchitects%2BDaughter;fillColor=#FFFFCC;" vertex="1" parent="1">
          <mxGeometry x="340" y="270" width="20" height="20" as="geometry" />
        </mxCell>
        <mxCell id="dyopTxuXkjIeMEn5bf7l-41" value="" style="ellipse;whiteSpace=wrap;html=1;aspect=fixed;hachureGap=4;fontFamily=Architects Daughter;fontSource=https%3A%2F%2Ffonts.googleapis.com%2Fcss%3Ffamily%3DArchitects%2BDaughter;fillColor=#FFFFCC;" vertex="1" parent="1">
          <mxGeometry x="340" y="300" width="20" height="20" as="geometry" />
        </mxCell>
        <mxCell id="dyopTxuXkjIeMEn5bf7l-42" value="" style="ellipse;whiteSpace=wrap;html=1;aspect=fixed;hachureGap=4;fontFamily=Architects Daughter;fontSource=https%3A%2F%2Ffonts.googleapis.com%2Fcss%3Ffamily%3DArchitects%2BDaughter;fillColor=#FFFFCC;" vertex="1" parent="1">
          <mxGeometry x="340" y="240" width="20" height="20" as="geometry" />
        </mxCell>
        <mxCell id="dyopTxuXkjIeMEn5bf7l-43" value="" style="ellipse;whiteSpace=wrap;html=1;aspect=fixed;hachureGap=4;fontFamily=Architects Daughter;fontSource=https%3A%2F%2Ffonts.googleapis.com%2Fcss%3Ffamily%3DArchitects%2BDaughter;fillColor=#FFFFCC;" vertex="1" parent="1">
          <mxGeometry x="340" y="210" width="20" height="20" as="geometry" />
        </mxCell>
        <mxCell id="dyopTxuXkjIeMEn5bf7l-44" value="&lt;font face=&quot;Helvetica&quot;&gt;5分钟&lt;/font&gt;" style="text;html=1;align=center;verticalAlign=middle;resizable=0;points=[];autosize=1;strokeColor=none;fillColor=none;fontFamily=Architects Daughter;fontSource=https%3A%2F%2Ffonts.googleapis.com%2Fcss%3Ffamily%3DArchitects%2BDaughter;" vertex="1" parent="1">
          <mxGeometry x="360" y="205" width="50" height="30" as="geometry" />
        </mxCell>
        <mxCell id="dyopTxuXkjIeMEn5bf7l-45" value="&lt;font face=&quot;Helvetica&quot;&gt;14小时&lt;/font&gt;" style="text;html=1;align=center;verticalAlign=middle;resizable=0;points=[];autosize=1;strokeColor=none;fillColor=none;fontFamily=Architects Daughter;fontSource=https%3A%2F%2Ffonts.googleapis.com%2Fcss%3Ffamily%3DArchitects%2BDaughter;" vertex="1" parent="1">
          <mxGeometry x="355" y="235" width="60" height="30" as="geometry" />
        </mxCell>
        <mxCell id="dyopTxuXkjIeMEn5bf7l-46" value="&lt;font face=&quot;Helvetica&quot;&gt;2小时&lt;/font&gt;" style="text;html=1;align=center;verticalAlign=middle;resizable=0;points=[];autosize=1;strokeColor=none;fillColor=none;fontFamily=Architects Daughter;fontSource=https%3A%2F%2Ffonts.googleapis.com%2Fcss%3Ffamily%3DArchitects%2BDaughter;" vertex="1" parent="1">
          <mxGeometry x="360" y="265" width="50" height="30" as="geometry" />
        </mxCell>
        <mxCell id="dyopTxuXkjIeMEn5bf7l-47" value="&lt;font face=&quot;Helvetica&quot;&gt;6分钟&lt;/font&gt;" style="text;html=1;align=center;verticalAlign=middle;resizable=0;points=[];autosize=1;strokeColor=none;fillColor=none;fontFamily=Architects Daughter;fontSource=https%3A%2F%2Ffonts.googleapis.com%2Fcss%3Ffamily%3DArchitects%2BDaughter;" vertex="1" parent="1">
          <mxGeometry x="360" y="295" width="50" height="30" as="geometry" />
        </mxCell>
        <mxCell id="dyopTxuXkjIeMEn5bf7l-48" value="&lt;font face=&quot;Helvetica&quot;&gt;5秒&lt;/font&gt;" style="text;html=1;align=center;verticalAlign=middle;resizable=0;points=[];autosize=1;strokeColor=none;fillColor=none;fontFamily=Architects Daughter;fontSource=https%3A%2F%2Ffonts.googleapis.com%2Fcss%3Ffamily%3DArchitects%2BDaughter;" vertex="1" parent="1">
          <mxGeometry x="365" y="325" width="40" height="30" as="geometry" />
        </mxCell>
        <mxCell id="dyopTxuXkjIeMEn5bf7l-49" value="" style="endArrow=classic;html=1;rounded=0;hachureGap=4;fontFamily=Architects Daughter;fontSource=https%3A%2F%2Ffonts.googleapis.com%2Fcss%3Ffamily%3DArchitects%2BDaughter;exitX=0.55;exitY=0.967;exitDx=0;exitDy=0;exitPerimeter=0;entryX=0.5;entryY=0;entryDx=0;entryDy=0;flowAnimation=1;" edge="1" parent="1" source="dyopTxuXkjIeMEn5bf7l-48" target="dyopTxuXkjIeMEn5bf7l-50">
          <mxGeometry width="50" height="50" relative="1" as="geometry">
            <mxPoint x="370" y="410" as="sourcePoint" />
            <mxPoint x="420" y="360" as="targetPoint" />
          </mxGeometry>
        </mxCell>
        <mxCell id="dyopTxuXkjIeMEn5bf7l-50" value="自上次使用以来&lt;br&gt;已过的时间" style="text;html=1;align=center;verticalAlign=middle;whiteSpace=wrap;rounded=0;fontFamily=Architects Daughter;fontSource=https%3A%2F%2Ffonts.googleapis.com%2Fcss%3Ffamily%3DArchitects%2BDaughter;" vertex="1" parent="1">
          <mxGeometry x="340" y="380" width="90" height="30" as="geometry" />
        </mxCell>
        <mxCell id="dyopTxuXkjIeMEn5bf7l-51" value="" style="shape=image;html=1;verticalAlign=top;verticalLabelPosition=bottom;labelBackgroundColor=#ffffff;imageAspect=0;aspect=fixed;image=https://cdn4.iconfinder.com/data/icons/ios-web-user-interface-multi-circle-flat-vol-5/512/Delete_dustbin_empty_recycle_recycling_remove_trash-128.png;sketch=1;hachureGap=4;jiggle=2;curveFitting=1;fontFamily=Architects Daughter;fontSource=https%3A%2F%2Ffonts.googleapis.com%2Fcss%3Ffamily%3DArchitects%2BDaughter;" vertex="1" parent="1">
          <mxGeometry x="471" y="308" width="48" height="48" as="geometry" />
        </mxCell>
        <mxCell id="dyopTxuXkjIeMEn5bf7l-52" value="最先被删除" style="text;html=1;align=center;verticalAlign=middle;whiteSpace=wrap;rounded=0;fontFamily=Architects Daughter;fontSource=https%3A%2F%2Ffonts.googleapis.com%2Fcss%3Ffamily%3DArchitects%2BDaughter;" vertex="1" parent="1">
          <mxGeometry x="460" y="356" width="70" height="30" as="geometry" />
        </mxCell>
        <mxCell id="dyopTxuXkjIeMEn5bf7l-53" value="" style="shape=flexArrow;endArrow=classic;html=1;rounded=0;hachureGap=4;fontFamily=Architects Daughter;fontSource=https%3A%2F%2Ffonts.googleapis.com%2Fcss%3Ffamily%3DArchitects%2BDaughter;" edge="1" parent="1">
          <mxGeometry width="50" height="50" relative="1" as="geometry">
            <mxPoint x="415" y="339.5" as="sourcePoint" />
            <mxPoint x="465" y="339.5" as="targetPoint" />
          </mxGeometry>
        </mxCell>
        <mxCell id="dyopTxuXkjIeMEn5bf7l-73" value="" style="rounded=1;whiteSpace=wrap;html=1;hachureGap=4;fontFamily=Architects Daughter;fontSource=https%3A%2F%2Ffonts.googleapis.com%2Fcss%3Ffamily%3DArchitects%2BDaughter;dashed=1;fillColor=#fad9d5;strokeColor=#ae4132;" vertex="1" parent="1">
          <mxGeometry x="540" y="130" width="210" height="300" as="geometry" />
        </mxCell>
        <mxCell id="dyopTxuXkjIeMEn5bf7l-74" value="&lt;b&gt;&lt;font style=&quot;font-size: 17px;&quot; face=&quot;Helvetica&quot;&gt;RR&lt;br&gt;（随机替换）&lt;/font&gt;&lt;/b&gt;" style="rounded=1;whiteSpace=wrap;html=1;hachureGap=4;fontFamily=Architects Daughter;fontSource=https%3A%2F%2Ffonts.googleapis.com%2Fcss%3Ffamily%3DArchitects%2BDaughter;dashed=1;fillColor=#ffcccc;strokeColor=#36393d;" vertex="1" parent="1">
          <mxGeometry x="560" y="140" width="170" height="50" as="geometry" />
        </mxCell>
        <mxCell id="dyopTxuXkjIeMEn5bf7l-75" value="" style="html=1;verticalLabelPosition=bottom;align=center;labelBackgroundColor=#ffffff;verticalAlign=top;strokeWidth=2;strokeColor=#0080F0;shadow=0;dashed=0;shape=mxgraph.ios7.icons.clock;hachureGap=4;fontFamily=Architects Daughter;fontSource=https%3A%2F%2Ffonts.googleapis.com%2Fcss%3Ffamily%3DArchitects%2BDaughter;" vertex="1" parent="1">
          <mxGeometry x="700" y="130" width="30" height="30" as="geometry" />
        </mxCell>
        <mxCell id="dyopTxuXkjIeMEn5bf7l-76" value="" style="rounded=1;whiteSpace=wrap;html=1;hachureGap=4;fontFamily=Architects Daughter;fontSource=https%3A%2F%2Ffonts.googleapis.com%2Fcss%3Ffamily%3DArchitects%2BDaughter;dashed=1;fillColor=#fad9d5;strokeColor=#ae4132;" vertex="1" parent="1">
          <mxGeometry x="550" y="200" width="110" height="220" as="geometry" />
        </mxCell>
        <mxCell id="dyopTxuXkjIeMEn5bf7l-77" value="" style="ellipse;whiteSpace=wrap;html=1;aspect=fixed;hachureGap=4;fontFamily=Architects Daughter;fontSource=https%3A%2F%2Ffonts.googleapis.com%2Fcss%3Ffamily%3DArchitects%2BDaughter;fillColor=#f0a30a;strokeColor=#BD7000;fontColor=#000000;" vertex="1" parent="1">
          <mxGeometry x="595" y="290" width="20" height="20" as="geometry" />
        </mxCell>
        <mxCell id="dyopTxuXkjIeMEn5bf7l-78" value="" style="ellipse;whiteSpace=wrap;html=1;aspect=fixed;hachureGap=4;fontFamily=Architects Daughter;fontSource=https%3A%2F%2Ffonts.googleapis.com%2Fcss%3Ffamily%3DArchitects%2BDaughter;fillColor=#FFFFCC;" vertex="1" parent="1">
          <mxGeometry x="595" y="260" width="20" height="20" as="geometry" />
        </mxCell>
        <mxCell id="dyopTxuXkjIeMEn5bf7l-79" value="" style="ellipse;whiteSpace=wrap;html=1;aspect=fixed;hachureGap=4;fontFamily=Architects Daughter;fontSource=https%3A%2F%2Ffonts.googleapis.com%2Fcss%3Ffamily%3DArchitects%2BDaughter;fillColor=#FFFFCC;" vertex="1" parent="1">
          <mxGeometry x="595" y="320" width="20" height="20" as="geometry" />
        </mxCell>
        <mxCell id="dyopTxuXkjIeMEn5bf7l-80" value="" style="ellipse;whiteSpace=wrap;html=1;aspect=fixed;hachureGap=4;fontFamily=Architects Daughter;fontSource=https%3A%2F%2Ffonts.googleapis.com%2Fcss%3Ffamily%3DArchitects%2BDaughter;fillColor=#FFFFCC;" vertex="1" parent="1">
          <mxGeometry x="595" y="350" width="20" height="20" as="geometry" />
        </mxCell>
        <mxCell id="dyopTxuXkjIeMEn5bf7l-81" value="" style="ellipse;whiteSpace=wrap;html=1;aspect=fixed;hachureGap=4;fontFamily=Architects Daughter;fontSource=https%3A%2F%2Ffonts.googleapis.com%2Fcss%3Ffamily%3DArchitects%2BDaughter;fillColor=#FFFFCC;" vertex="1" parent="1">
          <mxGeometry x="595" y="230" width="20" height="20" as="geometry" />
        </mxCell>
        <mxCell id="dyopTxuXkjIeMEn5bf7l-89" value="" style="shape=image;html=1;verticalAlign=top;verticalLabelPosition=bottom;labelBackgroundColor=#ffffff;imageAspect=0;aspect=fixed;image=https://cdn4.iconfinder.com/data/icons/ios-web-user-interface-multi-circle-flat-vol-5/512/Delete_dustbin_empty_recycle_recycling_remove_trash-128.png;sketch=1;hachureGap=4;jiggle=2;curveFitting=1;fontFamily=Architects Daughter;fontSource=https%3A%2F%2Ffonts.googleapis.com%2Fcss%3Ffamily%3DArchitects%2BDaughter;" vertex="1" parent="1">
          <mxGeometry x="691" y="265" width="48" height="48" as="geometry" />
        </mxCell>
        <mxCell id="dyopTxuXkjIeMEn5bf7l-90" value="随机删除" style="text;html=1;align=center;verticalAlign=middle;whiteSpace=wrap;rounded=0;fontFamily=Architects Daughter;fontSource=https%3A%2F%2Ffonts.googleapis.com%2Fcss%3Ffamily%3DArchitects%2BDaughter;" vertex="1" parent="1">
          <mxGeometry x="680" y="313" width="70" height="30" as="geometry" />
        </mxCell>
        <mxCell id="dyopTxuXkjIeMEn5bf7l-91" value="" style="shape=flexArrow;endArrow=classic;html=1;rounded=0;hachureGap=4;fontFamily=Architects Daughter;fontSource=https%3A%2F%2Ffonts.googleapis.com%2Fcss%3Ffamily%3DArchitects%2BDaughter;" edge="1" parent="1">
          <mxGeometry width="50" height="50" relative="1" as="geometry">
            <mxPoint x="630" y="299.5" as="sourcePoint" />
            <mxPoint x="680" y="299.5" as="targetPoint" />
          </mxGeometry>
        </mxCell>
        <mxCell id="dyopTxuXkjIeMEn5bf7l-92" value="" style="rounded=1;whiteSpace=wrap;html=1;hachureGap=4;fontFamily=Architects Daughter;fontSource=https%3A%2F%2Ffonts.googleapis.com%2Fcss%3Ffamily%3DArchitects%2BDaughter;dashed=1;fillColor=#cdeb8b;strokeColor=#36393d;" vertex="1" parent="1">
          <mxGeometry x="100" y="440" width="210" height="300" as="geometry" />
        </mxCell>
        <mxCell id="dyopTxuXkjIeMEn5bf7l-93" value="&lt;b&gt;&lt;font style=&quot;font-size: 17px;&quot; face=&quot;Helvetica&quot;&gt;LFU&lt;br&gt;（最不常使用）&lt;/font&gt;&lt;/b&gt;" style="rounded=1;whiteSpace=wrap;html=1;hachureGap=4;fontFamily=Architects Daughter;fontSource=https%3A%2F%2Ffonts.googleapis.com%2Fcss%3Ffamily%3DArchitects%2BDaughter;dashed=1;fillColor=#d5e8d4;strokeColor=#82b366;" vertex="1" parent="1">
          <mxGeometry x="120" y="450" width="170" height="50" as="geometry" />
        </mxCell>
        <mxCell id="dyopTxuXkjIeMEn5bf7l-94" value="" style="html=1;verticalLabelPosition=bottom;align=center;labelBackgroundColor=#ffffff;verticalAlign=top;strokeWidth=2;strokeColor=#0080F0;shadow=0;dashed=0;shape=mxgraph.ios7.icons.clock;hachureGap=4;fontFamily=Architects Daughter;fontSource=https%3A%2F%2Ffonts.googleapis.com%2Fcss%3Ffamily%3DArchitects%2BDaughter;" vertex="1" parent="1">
          <mxGeometry x="260" y="440" width="30" height="30" as="geometry" />
        </mxCell>
        <mxCell id="dyopTxuXkjIeMEn5bf7l-95" value="" style="rounded=1;whiteSpace=wrap;html=1;hachureGap=4;fontFamily=Architects Daughter;fontSource=https%3A%2F%2Ffonts.googleapis.com%2Fcss%3Ffamily%3DArchitects%2BDaughter;dashed=1;fillColor=#cdeb8b;strokeColor=#36393d;" vertex="1" parent="1">
          <mxGeometry x="110" y="510" width="110" height="220" as="geometry" />
        </mxCell>
        <mxCell id="dyopTxuXkjIeMEn5bf7l-96" value="" style="ellipse;whiteSpace=wrap;html=1;aspect=fixed;hachureGap=4;fontFamily=Architects Daughter;fontSource=https%3A%2F%2Ffonts.googleapis.com%2Fcss%3Ffamily%3DArchitects%2BDaughter;fillColor=#f0a30a;strokeColor=#BD7000;fontColor=#000000;" vertex="1" parent="1">
          <mxGeometry x="120" y="550" width="20" height="20" as="geometry" />
        </mxCell>
        <mxCell id="dyopTxuXkjIeMEn5bf7l-97" value="" style="ellipse;whiteSpace=wrap;html=1;aspect=fixed;hachureGap=4;fontFamily=Architects Daughter;fontSource=https%3A%2F%2Ffonts.googleapis.com%2Fcss%3Ffamily%3DArchitects%2BDaughter;fillColor=#FFFFCC;" vertex="1" parent="1">
          <mxGeometry x="120" y="580" width="20" height="20" as="geometry" />
        </mxCell>
        <mxCell id="dyopTxuXkjIeMEn5bf7l-98" value="" style="ellipse;whiteSpace=wrap;html=1;aspect=fixed;hachureGap=4;fontFamily=Architects Daughter;fontSource=https%3A%2F%2Ffonts.googleapis.com%2Fcss%3Ffamily%3DArchitects%2BDaughter;fillColor=#FFFFCC;" vertex="1" parent="1">
          <mxGeometry x="120" y="610" width="20" height="20" as="geometry" />
        </mxCell>
        <mxCell id="dyopTxuXkjIeMEn5bf7l-99" value="" style="ellipse;whiteSpace=wrap;html=1;aspect=fixed;hachureGap=4;fontFamily=Architects Daughter;fontSource=https%3A%2F%2Ffonts.googleapis.com%2Fcss%3Ffamily%3DArchitects%2BDaughter;fillColor=#FFFFCC;" vertex="1" parent="1">
          <mxGeometry x="120" y="640" width="20" height="20" as="geometry" />
        </mxCell>
        <mxCell id="dyopTxuXkjIeMEn5bf7l-100" value="" style="ellipse;whiteSpace=wrap;html=1;aspect=fixed;hachureGap=4;fontFamily=Architects Daughter;fontSource=https%3A%2F%2Ffonts.googleapis.com%2Fcss%3Ffamily%3DArchitects%2BDaughter;fillColor=#FFFFCC;" vertex="1" parent="1">
          <mxGeometry x="120" y="520" width="20" height="20" as="geometry" />
        </mxCell>
        <mxCell id="dyopTxuXkjIeMEn5bf7l-101" value="&lt;font face=&quot;Helvetica&quot;&gt;168&lt;/font&gt;" style="text;html=1;align=center;verticalAlign=middle;resizable=0;points=[];autosize=1;strokeColor=none;fillColor=none;fontFamily=Architects Daughter;fontSource=https%3A%2F%2Ffonts.googleapis.com%2Fcss%3Ffamily%3DArchitects%2BDaughter;" vertex="1" parent="1">
          <mxGeometry x="145" y="515" width="40" height="30" as="geometry" />
        </mxCell>
        <mxCell id="dyopTxuXkjIeMEn5bf7l-102" value="&lt;font face=&quot;Helvetica&quot;&gt;93&lt;/font&gt;" style="text;html=1;align=center;verticalAlign=middle;resizable=0;points=[];autosize=1;strokeColor=none;fillColor=none;fontFamily=Architects Daughter;fontSource=https%3A%2F%2Ffonts.googleapis.com%2Fcss%3Ffamily%3DArchitects%2BDaughter;" vertex="1" parent="1">
          <mxGeometry x="145" y="545" width="40" height="30" as="geometry" />
        </mxCell>
        <mxCell id="dyopTxuXkjIeMEn5bf7l-103" value="&lt;font face=&quot;Helvetica&quot;&gt;20&lt;/font&gt;" style="text;html=1;align=center;verticalAlign=middle;resizable=0;points=[];autosize=1;strokeColor=none;fillColor=none;fontFamily=Architects Daughter;fontSource=https%3A%2F%2Ffonts.googleapis.com%2Fcss%3Ffamily%3DArchitects%2BDaughter;" vertex="1" parent="1">
          <mxGeometry x="145" y="575" width="40" height="30" as="geometry" />
        </mxCell>
        <mxCell id="dyopTxuXkjIeMEn5bf7l-104" value="&lt;font face=&quot;Helvetica&quot;&gt;114&lt;/font&gt;" style="text;html=1;align=center;verticalAlign=middle;resizable=0;points=[];autosize=1;strokeColor=none;fillColor=none;fontFamily=Architects Daughter;fontSource=https%3A%2F%2Ffonts.googleapis.com%2Fcss%3Ffamily%3DArchitects%2BDaughter;" vertex="1" parent="1">
          <mxGeometry x="145" y="605" width="40" height="30" as="geometry" />
        </mxCell>
        <mxCell id="dyopTxuXkjIeMEn5bf7l-105" value="&lt;font face=&quot;Helvetica&quot;&gt;57&lt;/font&gt;" style="text;html=1;align=center;verticalAlign=middle;resizable=0;points=[];autosize=1;strokeColor=none;fillColor=none;fontFamily=Architects Daughter;fontSource=https%3A%2F%2Ffonts.googleapis.com%2Fcss%3Ffamily%3DArchitects%2BDaughter;" vertex="1" parent="1">
          <mxGeometry x="145" y="635" width="40" height="30" as="geometry" />
        </mxCell>
        <mxCell id="dyopTxuXkjIeMEn5bf7l-106" value="" style="endArrow=classic;html=1;rounded=0;hachureGap=4;fontFamily=Architects Daughter;fontSource=https%3A%2F%2Ffonts.googleapis.com%2Fcss%3Ffamily%3DArchitects%2BDaughter;exitX=0.55;exitY=0.967;exitDx=0;exitDy=0;exitPerimeter=0;entryX=0.5;entryY=0;entryDx=0;entryDy=0;flowAnimation=1;" edge="1" parent="1" source="dyopTxuXkjIeMEn5bf7l-105" target="dyopTxuXkjIeMEn5bf7l-107">
          <mxGeometry width="50" height="50" relative="1" as="geometry">
            <mxPoint x="150" y="720" as="sourcePoint" />
            <mxPoint x="200" y="670" as="targetPoint" />
          </mxGeometry>
        </mxCell>
        <mxCell id="dyopTxuXkjIeMEn5bf7l-107" value="使用次数" style="text;html=1;align=center;verticalAlign=middle;whiteSpace=wrap;rounded=0;fontFamily=Architects Daughter;fontSource=https%3A%2F%2Ffonts.googleapis.com%2Fcss%3Ffamily%3DArchitects%2BDaughter;" vertex="1" parent="1">
          <mxGeometry x="120" y="690" width="90" height="30" as="geometry" />
        </mxCell>
        <mxCell id="dyopTxuXkjIeMEn5bf7l-108" value="" style="shape=image;html=1;verticalAlign=top;verticalLabelPosition=bottom;labelBackgroundColor=#ffffff;imageAspect=0;aspect=fixed;image=https://cdn4.iconfinder.com/data/icons/ios-web-user-interface-multi-circle-flat-vol-5/512/Delete_dustbin_empty_recycle_recycling_remove_trash-128.png;sketch=1;hachureGap=4;jiggle=2;curveFitting=1;fontFamily=Architects Daughter;fontSource=https%3A%2F%2Ffonts.googleapis.com%2Fcss%3Ffamily%3DArchitects%2BDaughter;" vertex="1" parent="1">
          <mxGeometry x="251" y="540" width="48" height="48" as="geometry" />
        </mxCell>
        <mxCell id="dyopTxuXkjIeMEn5bf7l-109" value="最先被删除" style="text;html=1;align=center;verticalAlign=middle;whiteSpace=wrap;rounded=0;fontFamily=Architects Daughter;fontSource=https%3A%2F%2Ffonts.googleapis.com%2Fcss%3Ffamily%3DArchitects%2BDaughter;" vertex="1" parent="1">
          <mxGeometry x="240" y="588" width="70" height="30" as="geometry" />
        </mxCell>
        <mxCell id="dyopTxuXkjIeMEn5bf7l-110" value="" style="shape=flexArrow;endArrow=classic;html=1;rounded=0;hachureGap=4;fontFamily=Architects Daughter;fontSource=https%3A%2F%2Ffonts.googleapis.com%2Fcss%3Ffamily%3DArchitects%2BDaughter;" edge="1" parent="1">
          <mxGeometry width="50" height="50" relative="1" as="geometry">
            <mxPoint x="195" y="559.5" as="sourcePoint" />
            <mxPoint x="245" y="559.5" as="targetPoint" />
          </mxGeometry>
        </mxCell>
        <mxCell id="dyopTxuXkjIeMEn5bf7l-111" value="" style="rounded=1;whiteSpace=wrap;html=1;hachureGap=4;fontFamily=Architects Daughter;fontSource=https%3A%2F%2Ffonts.googleapis.com%2Fcss%3Ffamily%3DArchitects%2BDaughter;dashed=1;fillColor=#b1ddf0;strokeColor=#10739e;" vertex="1" parent="1">
          <mxGeometry x="320" y="440" width="210" height="300" as="geometry" />
        </mxCell>
        <mxCell id="dyopTxuXkjIeMEn5bf7l-112" value="&lt;b&gt;&lt;font style=&quot;font-size: 17px;&quot; face=&quot;Helvetica&quot;&gt;FIFO&lt;br&gt;（先进先出）&lt;/font&gt;&lt;/b&gt;" style="rounded=1;whiteSpace=wrap;html=1;hachureGap=4;fontFamily=Architects Daughter;fontSource=https%3A%2F%2Ffonts.googleapis.com%2Fcss%3Ffamily%3DArchitects%2BDaughter;dashed=1;fillColor=#dae8fc;strokeColor=#6c8ebf;" vertex="1" parent="1">
          <mxGeometry x="340" y="450" width="170" height="50" as="geometry" />
        </mxCell>
        <mxCell id="dyopTxuXkjIeMEn5bf7l-113" value="" style="html=1;verticalLabelPosition=bottom;align=center;labelBackgroundColor=#ffffff;verticalAlign=top;strokeWidth=2;strokeColor=#0080F0;shadow=0;dashed=0;shape=mxgraph.ios7.icons.clock;hachureGap=4;fontFamily=Architects Daughter;fontSource=https%3A%2F%2Ffonts.googleapis.com%2Fcss%3Ffamily%3DArchitects%2BDaughter;" vertex="1" parent="1">
          <mxGeometry x="480" y="440" width="30" height="30" as="geometry" />
        </mxCell>
        <mxCell id="dyopTxuXkjIeMEn5bf7l-114" value="" style="rounded=1;whiteSpace=wrap;html=1;hachureGap=4;fontFamily=Architects Daughter;fontSource=https%3A%2F%2Ffonts.googleapis.com%2Fcss%3Ffamily%3DArchitects%2BDaughter;dashed=1;fillColor=#b1ddf0;strokeColor=#10739e;" vertex="1" parent="1">
          <mxGeometry x="330" y="510" width="110" height="220" as="geometry" />
        </mxCell>
        <mxCell id="dyopTxuXkjIeMEn5bf7l-115" value="" style="ellipse;whiteSpace=wrap;html=1;aspect=fixed;hachureGap=4;fontFamily=Architects Daughter;fontSource=https%3A%2F%2Ffonts.googleapis.com%2Fcss%3Ffamily%3DArchitects%2BDaughter;fillColor=#f0a30a;strokeColor=#BD7000;fontColor=#000000;" vertex="1" parent="1">
          <mxGeometry x="390" y="670" width="20" height="20" as="geometry" />
        </mxCell>
        <mxCell id="dyopTxuXkjIeMEn5bf7l-116" value="" style="ellipse;whiteSpace=wrap;html=1;aspect=fixed;hachureGap=4;fontFamily=Architects Daughter;fontSource=https%3A%2F%2Ffonts.googleapis.com%2Fcss%3Ffamily%3DArchitects%2BDaughter;fillColor=#FFFFCC;" vertex="1" parent="1">
          <mxGeometry x="390" y="605" width="20" height="20" as="geometry" />
        </mxCell>
        <mxCell id="dyopTxuXkjIeMEn5bf7l-117" value="" style="ellipse;whiteSpace=wrap;html=1;aspect=fixed;hachureGap=4;fontFamily=Architects Daughter;fontSource=https%3A%2F%2Ffonts.googleapis.com%2Fcss%3Ffamily%3DArchitects%2BDaughter;fillColor=#FFFFCC;" vertex="1" parent="1">
          <mxGeometry x="390" y="635" width="20" height="20" as="geometry" />
        </mxCell>
        <mxCell id="dyopTxuXkjIeMEn5bf7l-118" value="" style="ellipse;whiteSpace=wrap;html=1;aspect=fixed;hachureGap=4;fontFamily=Architects Daughter;fontSource=https%3A%2F%2Ffonts.googleapis.com%2Fcss%3Ffamily%3DArchitects%2BDaughter;fillColor=#FFFFCC;" vertex="1" parent="1">
          <mxGeometry x="390" y="575" width="20" height="20" as="geometry" />
        </mxCell>
        <mxCell id="dyopTxuXkjIeMEn5bf7l-119" value="" style="ellipse;whiteSpace=wrap;html=1;aspect=fixed;hachureGap=4;fontFamily=Architects Daughter;fontSource=https%3A%2F%2Ffonts.googleapis.com%2Fcss%3Ffamily%3DArchitects%2BDaughter;fillColor=#FFFFCC;" vertex="1" parent="1">
          <mxGeometry x="390" y="545" width="20" height="20" as="geometry" />
        </mxCell>
        <mxCell id="dyopTxuXkjIeMEn5bf7l-125" value="" style="endArrow=classic;html=1;rounded=0;hachureGap=4;fontFamily=Architects Daughter;fontSource=https%3A%2F%2Ffonts.googleapis.com%2Fcss%3Ffamily%3DArchitects%2BDaughter;flowAnimation=1;" edge="1" parent="1">
          <mxGeometry width="50" height="50" relative="1" as="geometry">
            <mxPoint x="360.5" y="540" as="sourcePoint" />
            <mxPoint x="360" y="690" as="targetPoint" />
          </mxGeometry>
        </mxCell>
        <mxCell id="dyopTxuXkjIeMEn5bf7l-127" value="" style="shape=image;html=1;verticalAlign=top;verticalLabelPosition=bottom;labelBackgroundColor=#ffffff;imageAspect=0;aspect=fixed;image=https://cdn4.iconfinder.com/data/icons/ios-web-user-interface-multi-circle-flat-vol-5/512/Delete_dustbin_empty_recycle_recycling_remove_trash-128.png;sketch=1;hachureGap=4;jiggle=2;curveFitting=1;fontFamily=Architects Daughter;fontSource=https%3A%2F%2Ffonts.googleapis.com%2Fcss%3Ffamily%3DArchitects%2BDaughter;" vertex="1" parent="1">
          <mxGeometry x="471" y="652" width="48" height="48" as="geometry" />
        </mxCell>
        <mxCell id="dyopTxuXkjIeMEn5bf7l-128" value="最先被删除" style="text;html=1;align=center;verticalAlign=middle;whiteSpace=wrap;rounded=0;fontFamily=Architects Daughter;fontSource=https%3A%2F%2Ffonts.googleapis.com%2Fcss%3Ffamily%3DArchitects%2BDaughter;" vertex="1" parent="1">
          <mxGeometry x="460" y="700" width="70" height="30" as="geometry" />
        </mxCell>
        <mxCell id="dyopTxuXkjIeMEn5bf7l-129" value="" style="shape=flexArrow;endArrow=classic;html=1;rounded=0;hachureGap=4;fontFamily=Architects Daughter;fontSource=https%3A%2F%2Ffonts.googleapis.com%2Fcss%3Ffamily%3DArchitects%2BDaughter;" edge="1" parent="1">
          <mxGeometry width="50" height="50" relative="1" as="geometry">
            <mxPoint x="415" y="679.5" as="sourcePoint" />
            <mxPoint x="465" y="679.5" as="targetPoint" />
          </mxGeometry>
        </mxCell>
        <mxCell id="dyopTxuXkjIeMEn5bf7l-130" value="" style="rounded=1;whiteSpace=wrap;html=1;hachureGap=4;fontFamily=Architects Daughter;fontSource=https%3A%2F%2Ffonts.googleapis.com%2Fcss%3Ffamily%3DArchitects%2BDaughter;dashed=1;fillColor=#bac8d3;strokeColor=#23445d;" vertex="1" parent="1">
          <mxGeometry x="540" y="440" width="210" height="300" as="geometry" />
        </mxCell>
        <mxCell id="dyopTxuXkjIeMEn5bf7l-131" value="&lt;b&gt;&lt;font style=&quot;font-size: 17px;&quot; face=&quot;Helvetica&quot;&gt;TTL&lt;br&gt;（时间到期）&lt;/font&gt;&lt;/b&gt;" style="rounded=1;whiteSpace=wrap;html=1;hachureGap=4;fontFamily=Architects Daughter;fontSource=https%3A%2F%2Ffonts.googleapis.com%2Fcss%3Ffamily%3DArchitects%2BDaughter;dashed=1;fillColor=#f5f5f5;fontColor=#333333;strokeColor=#666666;" vertex="1" parent="1">
          <mxGeometry x="560" y="450" width="170" height="50" as="geometry" />
        </mxCell>
        <mxCell id="dyopTxuXkjIeMEn5bf7l-132" value="" style="html=1;verticalLabelPosition=bottom;align=center;labelBackgroundColor=#ffffff;verticalAlign=top;strokeWidth=2;strokeColor=#0080F0;shadow=0;dashed=0;shape=mxgraph.ios7.icons.clock;hachureGap=4;fontFamily=Architects Daughter;fontSource=https%3A%2F%2Ffonts.googleapis.com%2Fcss%3Ffamily%3DArchitects%2BDaughter;" vertex="1" parent="1">
          <mxGeometry x="700" y="440" width="30" height="30" as="geometry" />
        </mxCell>
        <mxCell id="dyopTxuXkjIeMEn5bf7l-133" value="" style="rounded=1;whiteSpace=wrap;html=1;hachureGap=4;fontFamily=Architects Daughter;fontSource=https%3A%2F%2Ffonts.googleapis.com%2Fcss%3Ffamily%3DArchitects%2BDaughter;dashed=1;fillColor=#bac8d3;strokeColor=#23445d;" vertex="1" parent="1">
          <mxGeometry x="550" y="510" width="110" height="220" as="geometry" />
        </mxCell>
        <mxCell id="dyopTxuXkjIeMEn5bf7l-135" value="" style="ellipse;whiteSpace=wrap;html=1;aspect=fixed;hachureGap=4;fontFamily=Architects Daughter;fontSource=https%3A%2F%2Ffonts.googleapis.com%2Fcss%3Ffamily%3DArchitects%2BDaughter;fillColor=#FFFFCC;" vertex="1" parent="1">
          <mxGeometry x="560" y="580" width="20" height="20" as="geometry" />
        </mxCell>
        <mxCell id="dyopTxuXkjIeMEn5bf7l-136" value="" style="ellipse;whiteSpace=wrap;html=1;aspect=fixed;hachureGap=4;fontFamily=Architects Daughter;fontSource=https%3A%2F%2Ffonts.googleapis.com%2Fcss%3Ffamily%3DArchitects%2BDaughter;fillColor=#FFFFCC;" vertex="1" parent="1">
          <mxGeometry x="560" y="610" width="20" height="20" as="geometry" />
        </mxCell>
        <mxCell id="dyopTxuXkjIeMEn5bf7l-137" value="" style="ellipse;whiteSpace=wrap;html=1;aspect=fixed;hachureGap=4;fontFamily=Architects Daughter;fontSource=https%3A%2F%2Ffonts.googleapis.com%2Fcss%3Ffamily%3DArchitects%2BDaughter;fillColor=#FFFFCC;" vertex="1" parent="1">
          <mxGeometry x="560" y="640" width="20" height="20" as="geometry" />
        </mxCell>
        <mxCell id="dyopTxuXkjIeMEn5bf7l-138" value="" style="ellipse;whiteSpace=wrap;html=1;aspect=fixed;hachureGap=4;fontFamily=Architects Daughter;fontSource=https%3A%2F%2Ffonts.googleapis.com%2Fcss%3Ffamily%3DArchitects%2BDaughter;fillColor=#FFFFCC;" vertex="1" parent="1">
          <mxGeometry x="560" y="520" width="20" height="20" as="geometry" />
        </mxCell>
        <mxCell id="dyopTxuXkjIeMEn5bf7l-139" value="&lt;font face=&quot;Helvetica&quot;&gt;5分钟&lt;/font&gt;" style="text;html=1;align=center;verticalAlign=middle;resizable=0;points=[];autosize=1;strokeColor=none;fillColor=none;fontFamily=Architects Daughter;fontSource=https%3A%2F%2Ffonts.googleapis.com%2Fcss%3Ffamily%3DArchitects%2BDaughter;" vertex="1" parent="1">
          <mxGeometry x="580" y="515" width="50" height="30" as="geometry" />
        </mxCell>
        <mxCell id="dyopTxuXkjIeMEn5bf7l-140" value="&lt;font face=&quot;Helvetica&quot;&gt;14小时&lt;/font&gt;" style="text;html=1;align=center;verticalAlign=middle;resizable=0;points=[];autosize=1;strokeColor=none;fillColor=none;fontFamily=Architects Daughter;fontSource=https%3A%2F%2Ffonts.googleapis.com%2Fcss%3Ffamily%3DArchitects%2BDaughter;" vertex="1" parent="1">
          <mxGeometry x="575" y="545" width="60" height="30" as="geometry" />
        </mxCell>
        <mxCell id="dyopTxuXkjIeMEn5bf7l-141" value="&lt;font face=&quot;Helvetica&quot;&gt;2小时&lt;/font&gt;" style="text;html=1;align=center;verticalAlign=middle;resizable=0;points=[];autosize=1;strokeColor=none;fillColor=none;fontFamily=Architects Daughter;fontSource=https%3A%2F%2Ffonts.googleapis.com%2Fcss%3Ffamily%3DArchitects%2BDaughter;" vertex="1" parent="1">
          <mxGeometry x="580" y="575" width="50" height="30" as="geometry" />
        </mxCell>
        <mxCell id="dyopTxuXkjIeMEn5bf7l-142" value="&lt;font face=&quot;Helvetica&quot;&gt;6分钟&lt;/font&gt;" style="text;html=1;align=center;verticalAlign=middle;resizable=0;points=[];autosize=1;strokeColor=none;fillColor=none;fontFamily=Architects Daughter;fontSource=https%3A%2F%2Ffonts.googleapis.com%2Fcss%3Ffamily%3DArchitects%2BDaughter;" vertex="1" parent="1">
          <mxGeometry x="580" y="605" width="50" height="30" as="geometry" />
        </mxCell>
        <mxCell id="dyopTxuXkjIeMEn5bf7l-143" value="&lt;font face=&quot;Helvetica&quot;&gt;5秒&lt;/font&gt;" style="text;html=1;align=center;verticalAlign=middle;resizable=0;points=[];autosize=1;strokeColor=none;fillColor=none;fontFamily=Architects Daughter;fontSource=https%3A%2F%2Ffonts.googleapis.com%2Fcss%3Ffamily%3DArchitects%2BDaughter;" vertex="1" parent="1">
          <mxGeometry x="585" y="635" width="40" height="30" as="geometry" />
        </mxCell>
        <mxCell id="dyopTxuXkjIeMEn5bf7l-144" value="" style="endArrow=classic;html=1;rounded=0;hachureGap=4;fontFamily=Architects Daughter;fontSource=https%3A%2F%2Ffonts.googleapis.com%2Fcss%3Ffamily%3DArchitects%2BDaughter;exitX=0.55;exitY=0.967;exitDx=0;exitDy=0;exitPerimeter=0;entryX=0.5;entryY=0;entryDx=0;entryDy=0;flowAnimation=1;" edge="1" parent="1" source="dyopTxuXkjIeMEn5bf7l-143" target="dyopTxuXkjIeMEn5bf7l-145">
          <mxGeometry width="50" height="50" relative="1" as="geometry">
            <mxPoint x="590" y="720" as="sourcePoint" />
            <mxPoint x="640" y="670" as="targetPoint" />
          </mxGeometry>
        </mxCell>
        <mxCell id="dyopTxuXkjIeMEn5bf7l-145" value="到期时间" style="text;html=1;align=center;verticalAlign=middle;whiteSpace=wrap;rounded=0;fontFamily=Architects Daughter;fontSource=https%3A%2F%2Ffonts.googleapis.com%2Fcss%3Ffamily%3DArchitects%2BDaughter;" vertex="1" parent="1">
          <mxGeometry x="560" y="690" width="90" height="30" as="geometry" />
        </mxCell>
        <mxCell id="dyopTxuXkjIeMEn5bf7l-147" value="当TTL过期时，&lt;br&gt;缓存条目被标记&lt;br&gt;为符合删除条件" style="text;html=1;align=center;verticalAlign=middle;whiteSpace=wrap;rounded=0;fontFamily=Architects Daughter;fontSource=https%3A%2F%2Ffonts.googleapis.com%2Fcss%3Ffamily%3DArchitects%2BDaughter;" vertex="1" parent="1">
          <mxGeometry x="643.5" y="655" width="121" height="30" as="geometry" />
        </mxCell>
        <mxCell id="dyopTxuXkjIeMEn5bf7l-152" value="" style="shape=image;html=1;verticalAlign=top;verticalLabelPosition=bottom;labelBackgroundColor=#ffffff;imageAspect=0;aspect=fixed;image=https://cdn4.iconfinder.com/data/icons/the-shine-of-small-things/128/shining_mix__time-128.png;sketch=1;hachureGap=4;jiggle=2;curveFitting=1;fontFamily=Architects Daughter;fontSource=https%3A%2F%2Ffonts.googleapis.com%2Fcss%3Ffamily%3DArchitects%2BDaughter;" vertex="1" parent="1">
          <mxGeometry x="674" y="536" width="60" height="60" as="geometry" />
        </mxCell>
        <mxCell id="dyopTxuXkjIeMEn5bf7l-153" value="" style="sketch=0;outlineConnect=0;fontColor=#232F3E;gradientColor=none;fillColor=#E7157B;strokeColor=none;dashed=0;verticalLabelPosition=bottom;verticalAlign=top;align=center;html=1;fontSize=12;fontStyle=0;aspect=fixed;pointerEvents=1;shape=mxgraph.aws4.event_time_based;hachureGap=4;jiggle=2;curveFitting=1;fontFamily=Architects Daughter;fontSource=https%3A%2F%2Ffonts.googleapis.com%2Fcss%3Ffamily%3DArchitects%2BDaughter;" vertex="1" parent="1">
          <mxGeometry x="680" y="596" width="48" height="48" as="geometry" />
        </mxCell>
        <mxCell id="dyopTxuXkjIeMEn5bf7l-154" value="" style="ellipse;whiteSpace=wrap;html=1;aspect=fixed;hachureGap=4;fontFamily=Architects Daughter;fontSource=https%3A%2F%2Ffonts.googleapis.com%2Fcss%3Ffamily%3DArchitects%2BDaughter;fillColor=#FFFFCC;" vertex="1" parent="1">
          <mxGeometry x="560" y="550" width="20" height="20" as="geometry" />
        </mxCell>
        <mxCell id="dyopTxuXkjIeMEn5bf7l-155" value="" style="rounded=1;whiteSpace=wrap;html=1;hachureGap=4;fontFamily=Architects Daughter;fontSource=https%3A%2F%2Ffonts.googleapis.com%2Fcss%3Ffamily%3DArchitects%2BDaughter;dashed=1;fillColor=#fff2cc;gradientColor=#ffd966;strokeColor=#d6b656;" vertex="1" parent="1">
          <mxGeometry x="100" y="750" width="320" height="280" as="geometry" />
        </mxCell>
        <mxCell id="dyopTxuXkjIeMEn5bf7l-159" value="" style="rounded=1;whiteSpace=wrap;html=1;hachureGap=4;fontFamily=Architects Daughter;fontSource=https%3A%2F%2Ffonts.googleapis.com%2Fcss%3Ffamily%3DArchitects%2BDaughter;dashed=1;fillColor=#f5f5f5;gradientColor=#b3b3b3;strokeColor=#666666;" vertex="1" parent="1">
          <mxGeometry x="430" y="750" width="320" height="280" as="geometry" />
        </mxCell>
        <mxCell id="dyopTxuXkjIeMEn5bf7l-160" value="&lt;b&gt;&lt;font style=&quot;font-size: 17px;&quot; face=&quot;Helvetica&quot;&gt;TTC&lt;br&gt;（俩层缓存）&lt;/font&gt;&lt;/b&gt;" style="rounded=1;whiteSpace=wrap;html=1;hachureGap=4;fontFamily=Architects Daughter;fontSource=https%3A%2F%2Ffonts.googleapis.com%2Fcss%3Ffamily%3DArchitects%2BDaughter;dashed=1;fillColor=#ffcd28;gradientColor=#ffa500;strokeColor=#d79b00;" vertex="1" parent="1">
          <mxGeometry x="175" y="760" width="170" height="50" as="geometry" />
        </mxCell>
        <mxCell id="dyopTxuXkjIeMEn5bf7l-161" value="&lt;b&gt;&lt;font style=&quot;font-size: 17px;&quot; face=&quot;Helvetica&quot;&gt;SLRU&lt;br&gt;（分段最近最少使用）&lt;/font&gt;&lt;/b&gt;" style="rounded=1;whiteSpace=wrap;html=1;hachureGap=4;fontFamily=Architects Daughter;fontSource=https%3A%2F%2Ffonts.googleapis.com%2Fcss%3Ffamily%3DArchitects%2BDaughter;dashed=1;fillColor=#f9f7ed;strokeColor=#36393d;" vertex="1" parent="1">
          <mxGeometry x="505" y="760" width="170" height="50" as="geometry" />
        </mxCell>
        <mxCell id="dyopTxuXkjIeMEn5bf7l-162" value="" style="rounded=1;whiteSpace=wrap;html=1;hachureGap=4;fontFamily=Architects Daughter;fontSource=https%3A%2F%2Ffonts.googleapis.com%2Fcss%3Ffamily%3DArchitects%2BDaughter;dashed=1;fillColor=#fff2cc;gradientColor=#ffd966;strokeColor=#d6b656;" vertex="1" parent="1">
          <mxGeometry x="150" y="840" width="190" height="60" as="geometry" />
        </mxCell>
        <mxCell id="dyopTxuXkjIeMEn5bf7l-163" value="" style="rounded=1;whiteSpace=wrap;html=1;hachureGap=4;fontFamily=Architects Daughter;fontSource=https%3A%2F%2Ffonts.googleapis.com%2Fcss%3Ffamily%3DArchitects%2BDaughter;dashed=1;fillColor=#fff2cc;gradientColor=#ffd966;strokeColor=#d6b656;" vertex="1" parent="1">
          <mxGeometry x="150" y="930" width="190" height="60" as="geometry" />
        </mxCell>
        <mxCell id="dyopTxuXkjIeMEn5bf7l-164" value="快速缓存" style="text;html=1;align=center;verticalAlign=middle;whiteSpace=wrap;rounded=0;fontFamily=Architects Daughter;fontSource=https%3A%2F%2Ffonts.googleapis.com%2Fcss%3Ffamily%3DArchitects%2BDaughter;" vertex="1" parent="1">
          <mxGeometry x="344" y="860" width="70" height="30" as="geometry" />
        </mxCell>
        <mxCell id="dyopTxuXkjIeMEn5bf7l-165" value="慢速缓存" style="text;html=1;align=center;verticalAlign=middle;whiteSpace=wrap;rounded=0;fontFamily=Architects Daughter;fontSource=https%3A%2F%2Ffonts.googleapis.com%2Fcss%3Ffamily%3DArchitects%2BDaughter;" vertex="1" parent="1">
          <mxGeometry x="344" y="945" width="70" height="30" as="geometry" />
        </mxCell>
        <mxCell id="dyopTxuXkjIeMEn5bf7l-166" value="" style="ellipse;whiteSpace=wrap;html=1;aspect=fixed;hachureGap=4;fontFamily=Architects Daughter;fontSource=https%3A%2F%2Ffonts.googleapis.com%2Fcss%3Ffamily%3DArchitects%2BDaughter;fillColor=#FFFFCC;" vertex="1" parent="1">
          <mxGeometry x="165" y="870" width="20" height="20" as="geometry" />
        </mxCell>
        <mxCell id="dyopTxuXkjIeMEn5bf7l-167" value="" style="ellipse;whiteSpace=wrap;html=1;aspect=fixed;hachureGap=4;fontFamily=Architects Daughter;fontSource=https%3A%2F%2Ffonts.googleapis.com%2Fcss%3Ffamily%3DArchitects%2BDaughter;fillColor=#FFFFCC;" vertex="1" parent="1">
          <mxGeometry x="235" y="870" width="20" height="20" as="geometry" />
        </mxCell>
        <mxCell id="dyopTxuXkjIeMEn5bf7l-169" value="" style="ellipse;whiteSpace=wrap;html=1;aspect=fixed;hachureGap=4;fontFamily=Architects Daughter;fontSource=https%3A%2F%2Ffonts.googleapis.com%2Fcss%3Ffamily%3DArchitects%2BDaughter;fillColor=#f0a30a;strokeColor=#BD7000;fontColor=#000000;" vertex="1" parent="1">
          <mxGeometry x="300" y="870" width="20" height="20" as="geometry" />
        </mxCell>
        <mxCell id="dyopTxuXkjIeMEn5bf7l-170" value="常用数据" style="text;html=1;align=center;verticalAlign=middle;resizable=0;points=[];autosize=1;strokeColor=none;fillColor=none;fontFamily=Architects Daughter;fontSource=https%3A%2F%2Ffonts.googleapis.com%2Fcss%3Ffamily%3DArchitects%2BDaughter;" vertex="1" parent="1">
          <mxGeometry x="210" y="840" width="70" height="30" as="geometry" />
        </mxCell>
        <mxCell id="dyopTxuXkjIeMEn5bf7l-171" value="不常用数据" style="text;html=1;align=center;verticalAlign=middle;resizable=0;points=[];autosize=1;strokeColor=none;fillColor=none;fontFamily=Architects Daughter;fontSource=https%3A%2F%2Ffonts.googleapis.com%2Fcss%3Ffamily%3DArchitects%2BDaughter;" vertex="1" parent="1">
          <mxGeometry x="205" y="930" width="80" height="30" as="geometry" />
        </mxCell>
        <mxCell id="dyopTxuXkjIeMEn5bf7l-172" value="" style="ellipse;whiteSpace=wrap;html=1;aspect=fixed;hachureGap=4;fontFamily=Architects Daughter;fontSource=https%3A%2F%2Ffonts.googleapis.com%2Fcss%3Ffamily%3DArchitects%2BDaughter;fillColor=#60a917;fontColor=#ffffff;strokeColor=#2D7600;" vertex="1" parent="1">
          <mxGeometry x="180" y="960" width="20" height="20" as="geometry" />
        </mxCell>
        <mxCell id="dyopTxuXkjIeMEn5bf7l-173" value="" style="ellipse;whiteSpace=wrap;html=1;aspect=fixed;hachureGap=4;fontFamily=Architects Daughter;fontSource=https%3A%2F%2Ffonts.googleapis.com%2Fcss%3Ffamily%3DArchitects%2BDaughter;fillColor=#60a917;fontColor=#ffffff;strokeColor=#2D7600;" vertex="1" parent="1">
          <mxGeometry x="300" y="960" width="20" height="20" as="geometry" />
        </mxCell>
        <mxCell id="dyopTxuXkjIeMEn5bf7l-174" value="" style="ellipse;whiteSpace=wrap;html=1;aspect=fixed;hachureGap=4;fontFamily=Architects Daughter;fontSource=https%3A%2F%2Ffonts.googleapis.com%2Fcss%3Ffamily%3DArchitects%2BDaughter;fillColor=#60a917;fontColor=#ffffff;strokeColor=#2D7600;" vertex="1" parent="1">
          <mxGeometry x="210" y="960" width="20" height="20" as="geometry" />
        </mxCell>
        <mxCell id="dyopTxuXkjIeMEn5bf7l-175" value="" style="ellipse;whiteSpace=wrap;html=1;aspect=fixed;hachureGap=4;fontFamily=Architects Daughter;fontSource=https%3A%2F%2Ffonts.googleapis.com%2Fcss%3Ffamily%3DArchitects%2BDaughter;fillColor=#60a917;fontColor=#ffffff;strokeColor=#2D7600;" vertex="1" parent="1">
          <mxGeometry x="240" y="960" width="20" height="20" as="geometry" />
        </mxCell>
        <mxCell id="dyopTxuXkjIeMEn5bf7l-176" value="" style="ellipse;whiteSpace=wrap;html=1;aspect=fixed;hachureGap=4;fontFamily=Architects Daughter;fontSource=https%3A%2F%2Ffonts.googleapis.com%2Fcss%3Ffamily%3DArchitects%2BDaughter;fillColor=#60a917;fontColor=#ffffff;strokeColor=#2D7600;" vertex="1" parent="1">
          <mxGeometry x="271" y="960" width="20" height="20" as="geometry" />
        </mxCell>
        <mxCell id="dyopTxuXkjIeMEn5bf7l-177" value="" style="rounded=1;whiteSpace=wrap;html=1;hachureGap=4;fontFamily=Architects Daughter;fontSource=https%3A%2F%2Ffonts.googleapis.com%2Fcss%3Ffamily%3DArchitects%2BDaughter;dashed=1;fillColor=#f5f5f5;gradientColor=#b3b3b3;strokeColor=#666666;" vertex="1" parent="1">
          <mxGeometry x="450" y="845" width="190" height="60" as="geometry" />
        </mxCell>
        <mxCell id="dyopTxuXkjIeMEn5bf7l-178" value="&lt;font face=&quot;Helvetica&quot;&gt;LRU首先在这发生&lt;/font&gt;" style="text;html=1;align=left;verticalAlign=middle;whiteSpace=wrap;rounded=0;fontFamily=Architects Daughter;fontSource=https%3A%2F%2Ffonts.googleapis.com%2Fcss%3Ffamily%3DArchitects%2BDaughter;" vertex="1" parent="1">
          <mxGeometry x="675" y="870" width="70" height="30" as="geometry" />
        </mxCell>
        <mxCell id="dyopTxuXkjIeMEn5bf7l-179" value="" style="ellipse;whiteSpace=wrap;html=1;aspect=fixed;hachureGap=4;fontFamily=Architects Daughter;fontSource=https%3A%2F%2Ffonts.googleapis.com%2Fcss%3Ffamily%3DArchitects%2BDaughter;fillColor=#FFFFCC;" vertex="1" parent="1">
          <mxGeometry x="465" y="875" width="20" height="20" as="geometry" />
        </mxCell>
        <mxCell id="dyopTxuXkjIeMEn5bf7l-180" value="" style="ellipse;whiteSpace=wrap;html=1;aspect=fixed;hachureGap=4;fontFamily=Architects Daughter;fontSource=https%3A%2F%2Ffonts.googleapis.com%2Fcss%3Ffamily%3DArchitects%2BDaughter;fillColor=#FFFFCC;" vertex="1" parent="1">
          <mxGeometry x="535" y="875" width="20" height="20" as="geometry" />
        </mxCell>
        <mxCell id="dyopTxuXkjIeMEn5bf7l-181" value="" style="ellipse;whiteSpace=wrap;html=1;aspect=fixed;hachureGap=4;fontFamily=Architects Daughter;fontSource=https%3A%2F%2Ffonts.googleapis.com%2Fcss%3Ffamily%3DArchitects%2BDaughter;fillColor=#f0a30a;strokeColor=#BD7000;fontColor=#000000;" vertex="1" parent="1">
          <mxGeometry x="600" y="875" width="20" height="20" as="geometry" />
        </mxCell>
        <mxCell id="dyopTxuXkjIeMEn5bf7l-182" value="试用段" style="text;html=1;align=center;verticalAlign=middle;resizable=0;points=[];autosize=1;strokeColor=none;fillColor=none;fontFamily=Architects Daughter;fontSource=https%3A%2F%2Ffonts.googleapis.com%2Fcss%3Ffamily%3DArchitects%2BDaughter;" vertex="1" parent="1">
          <mxGeometry x="515" y="845" width="60" height="30" as="geometry" />
        </mxCell>
        <mxCell id="dyopTxuXkjIeMEn5bf7l-183" value="" style="rounded=1;whiteSpace=wrap;html=1;hachureGap=4;fontFamily=Architects Daughter;fontSource=https%3A%2F%2Ffonts.googleapis.com%2Fcss%3Ffamily%3DArchitects%2BDaughter;dashed=1;fillColor=#f5f5f5;gradientColor=#b3b3b3;strokeColor=#666666;" vertex="1" parent="1">
          <mxGeometry x="453.5" y="945" width="190" height="60" as="geometry" />
        </mxCell>
        <mxCell id="dyopTxuXkjIeMEn5bf7l-184" value="受保护段" style="text;html=1;align=center;verticalAlign=middle;resizable=0;points=[];autosize=1;strokeColor=none;fillColor=none;fontFamily=Architects Daughter;fontSource=https%3A%2F%2Ffonts.googleapis.com%2Fcss%3Ffamily%3DArchitects%2BDaughter;" vertex="1" parent="1">
          <mxGeometry x="513.5" y="945" width="70" height="30" as="geometry" />
        </mxCell>
        <mxCell id="dyopTxuXkjIeMEn5bf7l-185" value="" style="ellipse;whiteSpace=wrap;html=1;aspect=fixed;hachureGap=4;fontFamily=Architects Daughter;fontSource=https%3A%2F%2Ffonts.googleapis.com%2Fcss%3Ffamily%3DArchitects%2BDaughter;fillColor=#60a917;fontColor=#ffffff;strokeColor=#2D7600;" vertex="1" parent="1">
          <mxGeometry x="483.5" y="975" width="20" height="20" as="geometry" />
        </mxCell>
        <mxCell id="dyopTxuXkjIeMEn5bf7l-186" value="" style="ellipse;whiteSpace=wrap;html=1;aspect=fixed;hachureGap=4;fontFamily=Architects Daughter;fontSource=https%3A%2F%2Ffonts.googleapis.com%2Fcss%3Ffamily%3DArchitects%2BDaughter;fillColor=#60a917;fontColor=#ffffff;strokeColor=#2D7600;" vertex="1" parent="1">
          <mxGeometry x="603.5" y="975" width="20" height="20" as="geometry" />
        </mxCell>
        <mxCell id="dyopTxuXkjIeMEn5bf7l-187" value="" style="ellipse;whiteSpace=wrap;html=1;aspect=fixed;hachureGap=4;fontFamily=Architects Daughter;fontSource=https%3A%2F%2Ffonts.googleapis.com%2Fcss%3Ffamily%3DArchitects%2BDaughter;fillColor=#60a917;fontColor=#ffffff;strokeColor=#2D7600;" vertex="1" parent="1">
          <mxGeometry x="513.5" y="975" width="20" height="20" as="geometry" />
        </mxCell>
        <mxCell id="dyopTxuXkjIeMEn5bf7l-188" value="" style="ellipse;whiteSpace=wrap;html=1;aspect=fixed;hachureGap=4;fontFamily=Architects Daughter;fontSource=https%3A%2F%2Ffonts.googleapis.com%2Fcss%3Ffamily%3DArchitects%2BDaughter;fillColor=#60a917;fontColor=#ffffff;strokeColor=#2D7600;" vertex="1" parent="1">
          <mxGeometry x="543.5" y="975" width="20" height="20" as="geometry" />
        </mxCell>
        <mxCell id="dyopTxuXkjIeMEn5bf7l-189" value="" style="ellipse;whiteSpace=wrap;html=1;aspect=fixed;hachureGap=4;fontFamily=Architects Daughter;fontSource=https%3A%2F%2Ffonts.googleapis.com%2Fcss%3Ffamily%3DArchitects%2BDaughter;fillColor=#60a917;fontColor=#ffffff;strokeColor=#2D7600;" vertex="1" parent="1">
          <mxGeometry x="574.5" y="975" width="20" height="20" as="geometry" />
        </mxCell>
        <mxCell id="dyopTxuXkjIeMEn5bf7l-190" value="再次被访问时进行保护" style="text;html=1;align=center;verticalAlign=middle;whiteSpace=wrap;rounded=0;fontFamily=Architects Daughter;fontSource=https%3A%2F%2Ffonts.googleapis.com%2Fcss%3Ffamily%3DArchitects%2BDaughter;" vertex="1" parent="1">
          <mxGeometry x="453.5" y="920" width="136.5" height="30" as="geometry" />
        </mxCell>
        <mxCell id="dyopTxuXkjIeMEn5bf7l-191" value="再次被访问时进行保护" style="text;html=1;align=center;verticalAlign=middle;whiteSpace=wrap;rounded=0;fontFamily=Architects Daughter;fontSource=https%3A%2F%2Ffonts.googleapis.com%2Fcss%3Ffamily%3DArchitects%2BDaughter;" vertex="1" parent="1">
          <mxGeometry x="455.25" y="820" width="136.5" height="30" as="geometry" />
        </mxCell>
        <mxCell id="dyopTxuXkjIeMEn5bf7l-192" value="" style="shape=flexArrow;endArrow=classic;html=1;rounded=0;hachureGap=4;fontFamily=Architects Daughter;fontSource=https%3A%2F%2Ffonts.googleapis.com%2Fcss%3Ffamily%3DArchitects%2BDaughter;" edge="1" parent="1">
          <mxGeometry width="50" height="50" relative="1" as="geometry">
            <mxPoint x="625" y="884.5" as="sourcePoint" />
            <mxPoint x="670" y="885" as="targetPoint" />
          </mxGeometry>
        </mxCell>
        <mxCell id="dyopTxuXkjIeMEn5bf7l-194" value="" style="endArrow=none;html=1;rounded=0;sketch=1;hachureGap=4;jiggle=2;curveFitting=1;fontFamily=Architects Daughter;fontSource=https%3A%2F%2Ffonts.googleapis.com%2Fcss%3Ffamily%3DArchitects%2BDaughter;" edge="1" parent="1" target="dyopTxuXkjIeMEn5bf7l-193">
          <mxGeometry width="50" height="50" relative="1" as="geometry">
            <mxPoint x="80" y="1040" as="sourcePoint" />
            <mxPoint x="760" y="1040" as="targetPoint" />
          </mxGeometry>
        </mxCell>
        <mxCell id="dyopTxuXkjIeMEn5bf7l-193" value="&lt;font face=&quot;Helvetica&quot;&gt;JavaPub技术团队&lt;/font&gt;" style="text;html=1;align=center;verticalAlign=middle;resizable=0;points=[];autosize=1;strokeColor=none;fillColor=none;fontFamily=Architects Daughter;fontSource=https%3A%2F%2Ffonts.googleapis.com%2Fcss%3Ffamily%3DArchitects%2BDaughter;" vertex="1" parent="1">
          <mxGeometry x="90" y="1030" width="120" height="30" as="geometry" />
        </mxCell>
      </root>
    </mxGraphModel>
  </diagram>
</mxfile>
